<svg xmlns="http://www.w3.org/2000/svg" viewBox="0 0 100 100">
  <defs>
    <linearGradient id="grad" x1="0%" y1="0%" x2="100%" y2="100%">
      <stop offset="0%" style="stop-color:#0084ff"/>
      <stop offset="100%" style="stop-color:#0050b3"/>
    </linearGradient>
  </defs>
  <circle cx="50" cy="50" r="45" fill="url(#grad)"/>
  <path d="M50 20 C30 20 20 35 20 50 C20 65 30 80 50 80 C40 70 35 60 35 50 C35 40 40 30 50 20" fill="white" opacity="0.9"/>
  <path d="M50 20 C70 20 80 35 80 50 C80 65 70 80 50 80 C60 70 65 60 65 50 C65 40 60 30 50 20" fill="white" opacity="0.9"/>
  <circle cx="40" cy="45" r="4" fill="url(#grad)"/>
  <circle cx="60" cy="45" r="4" fill="url(#grad)"/>
</svg>
